<svg xmlns="http://www.w3.org/2000/svg" width="640" height="640" viewBox="0 0 640 640"><rect width="640" height="640" fill="#0c3c2f"/><path fill="#eee5dd" d="M77.75 322.797c.754 1.207.518 21.41.483 24.309 4.049-10.962 10.781-20.432 22.859-23.171a22.14 22.14 0 0 1 16.923 3.14c6.008 3.957 6.914 11.546 8.123 18.067 3.496-8.874 8.098-14.898 16.734-19.462 4.45-2.351 11.675-2.922 16.515-1.233 14.9 4.924 13.327 22.085 13.17 34.622-.078 6.34-.062 12.933-.04 19.342.025 7.474.802 13.625 4.207 20.345l-29.229-.015c.677-1.12 1.338-2.245 1.906-3.425.819-1.7 1.372-3.318 1.671-5.183 1.284-7.996 2.082-40.32-.57-47.147-1.002-2.577-3.265-4.506-5.767-5.56-3.443-1.45-6.83-1.325-10.225.098-3.88 1.626-5.887 4.375-7.445 8.158l-.09.329c-2.418 9.221-1.959 33.09-1.083 43.563.237 2.833 1.859 6.647 3.326 9.168l-29.043.004c6.136-11.373 4.344-21.627 4.193-34.062-.181-9.078 3.152-25.622-9.159-28.098-7.218-1.658-15.32 3.876-16.087 11.38-1.363 13.343-3.868 39.333 3.229 50.78l-29.008-.025c1.365-2.952 2.537-5.857 3.089-9.08 1.062-6.205 1.473-35.606-.096-41.083-1.154-4.026-5.069-6.361-8.45-8.344 3.398-1.48 6.907-2.61 10.455-4.23 7.643-3.49 13.17-7.725 19.41-13.187"/><path fill="#eee5dd" d="M374.92 321.692c3.7-.66 9.87.774 13.396 2.027 35.702 12.682 13.032 48.017 25.835 75.032l-29.14.008c4.106-9.142 4.577-13.686 3.703-23.808-.655 3.171-1.333 6.395-2.543 9.41-6.185 15.425-32.345 21.045-42.594 6.85-1.226-1.697-1.966-3.38-2.76-5.322a21.5 21.5 0 0 1-.852-5.818c-.122-10.92 7.61-18.726 16.936-23.13 10.278-4.853 21.092-4.165 32.098-4.242.076-5.72.26-11.162-.073-17.035-.85-14.998-15.672-18.393-22.501-4.753-3.243 6.475-1.988 13.07.524 19.8-7.952.382-18.137.063-26.28.028 4.597-17.662 16.021-27.173 34.25-29.047m-11.465 63c3.355 2.8 6.99 4.751 11.476 4.234 15.562-1.791 14.45-22.707 14.066-33.79l-.364-.573c-12.555.178-30.708-.222-30.18 18.058.134 4.6 1.888 8.64 5.002 12.07"/><path fill="#f16030" d="M373.61 360.112c6.202-1.09 12.103 3.085 13.14 9.296 1.039 6.21-3.186 12.076-9.405 13.06-6.145.974-11.926-3.19-12.95-9.325-1.026-6.137 3.087-11.953 9.216-13.03"/><path fill="#eee5dd" d="M223.233 325.443c14.679.366 21.478 7.389 28.851 18.947-6.42 4.526-13.262 8.54-19.915 12.709a2364 2364 0 0 0-28.682 18.257 44 44 0 0 0 4.15 3.907c11.33 9.306 29.152 12.55 39.59-.37 1.565-1.94 2.567-4.45 4.184-6.315-.785 2.381-1.478 3.98-2.508 6.283a43.6 43.6 0 0 1-4.673 7.123 39.15 39.15 0 0 1-27.067 14.5 33.34 33.34 0 0 1-25.15-7.955 35.57 35.57 0 0 1-12.417-24.003c-2.094-26.012 19.87-41.284 43.637-43.084m-21.11 48.04c2.826-1.81 6.03-3.964 8.88-5.66 4.813-2.962 14.44-8.537 18.578-11.934.827-6.63.402-11.567-3.89-17.076a20.77 20.77 0 0 0-14.23-7.916c-1.039-.116-1.907-.193-2.954-.172-13.224 1.793-15.809 13.454-13.96 24.782 1.157 7.088 3.782 12.03 7.577 17.976"/><path fill="#eee5dd" d="M560.539 325.415c14.093-2.21 26.425 6.386 32.325 18.765l-34.37 21.909c-4.71 3.005-9.405 6.257-14.18 9.099a32.6 32.6 0 0 0 8.83 7.29c9.711 5.513 24.066 7.096 33.076-.615 3.254-2.786 4.904-6.161 6.947-9.814-.44 1.48-.834 2.547-1.385 3.974-5.496 13.308-17.08 21.684-31.222 23.837a34.45 34.45 0 0 1-25.544-6.477 35.3 35.3 0 0 1-14.09-23.341c-1.43-9.55.999-19.278 6.751-27.034 7.4-9.892 20.895-15.827 32.862-17.593m-17.296 47.525c2.544-1.4 7.044-4.04 9.43-5.77 5.45-3.494 13.313-8.11 18.248-11.904.208-3.88.452-6.8-.792-10.58-3.03-9.212-12.472-14.822-22.052-14.287-13.137 3.117-14.383 16.916-11.639 27.906 1.391 5.57 3.624 9.91 6.805 14.635"/><path fill="#eee5dd" d="M513.016 285.252c.578 2.338.25 16.405.247 19.991l-.066 51.062c-.021 7.922-.062 15.775.115 23.698.172 7.644.69 11.724 3.768 18.728-8.17.069-20.181.44-28.211-.107l.007-.59c4.515-9.92 3.688-17.456 3.667-28.082l-.003-23.096-.027-18.822c-.03-11.914.59-15.335-6.187-25.439 12.833-5.151 16.882-7.584 26.69-17.343"/><path fill="#eee5dd" d="M304.597 288.25c6.598-1.264 19.206 2.928 24.37 7.246 18.903 15.814 5.426 41.747-15.164 47.643-5.175 1.482-8.385 2.143-13.807 2.737 4.395-1.95 8.15-2.713 11.758-6.149 9.742-9.208 8.015-25.766.883-36.018-6.724-9.664-19.55-16.162-29.304-6.26-6.493 8.776-4.7 21.197-4.934 31.695-.166 7.49-.09 11.93 5.242 17.233-13.2 4.342-16.831 7.37-25.814 17.632l.052-23.735c.007-6.928.701-14.77-2.055-21.255-1.156-2.721-3.966-5.131-6.203-6.98 11.764-3.263 18.223-6.525 27.925-13.95 7.433-5.688 17.786-8.812 27.051-9.838"/><path fill="#eee5dd" d="M297.252 349.196c1.186-.119 4.191.197 5.449.41 18.562 3.132 23.6 28.08 35.058 40.44 4.154 4.48 5.595 5.599 10.922 8.695a1296 1296 0 0 1-30.346-.313c-9.287-7.327-17.897-29.68-26.522-39.558-2.66-2.308-3.723-2.972-6.951-4.37-9.65 13.613-9.313 31.861 2.174 44.287-11.295-.004-22.587-.308-33.814-.293 6.562-13.775 1.891-22.422 13.168-35.098 8.28-9.308 18.586-13.255 30.862-14.2"/><path fill="#eee5dd" d="M458.713 323.258a35 35 0 0 1 4.548.155c10.81 1.065 17.658 7.953 24.115 15.815-6.353 3.915-12.622 7.978-19.027 11.81-2.282-9.754-6.735-16.78-16.382-20.784-8.162-3.387-17.82.364-20.55 9.046-5.522 17.564 5.971 39.046 23.308 44.869 6.752 2.26 14.462 2.295 20.902-.933 5.749-3.3 8.51-7.884 11.451-13.556-1.463 5.821-4.22 11.616-8.01 16.28a37.69 37.69 0 0 1-25.989 13.836 33.38 33.38 0 0 1-24.529-7.753c-7.145-6.059-11.234-14.942-11.934-24.217a39.56 39.56 0 0 1 9.667-29.145c7.646-8.746 20.951-14.6 32.43-15.423"/><path fill="#f16030" d="M214 290.174c7.636-.476 14.234 5.275 14.806 12.904s-5.095 14.3-12.716 14.968a13.977 13.977 0 1 1-2.09-27.872"/><path fill="#f16030" d="M558.41 290.178c7.642-.222 14.039 5.749 14.345 13.388s-5.594 14.102-13.23 14.492a13.951 13.951 0 1 1-1.116-27.88"/><path fill="#eee5dd" d="M311.753 229.194c7.111-.786 21.958.567 29.1 1.583 35.924 5.156 68.935 24.632 93.928 50.502 1.969 2.037 14.985 15.844 14.692 17.81-.997-.529-8.124-9.203-9.587-10.862-26.414-29.948-61.825-51.463-101.733-56.933q-4.71-.598-9.45-.88c-41.954-2.667-81.156 11.362-112.858 38.853a160 160 0 0 0-12.753 12.407c-2.92 3.184-7.298 8.346-10.441 11.075l-.369.317c1.51-2.536 3.31-4.681 5.261-6.918 22.123-25.369 52.407-44.742 85.128-52.942 9.958-2.496 18.94-3.317 29.082-4.012"/><path fill="#eee5dd" d="M319.691 251.683c1.872-.161 4.515.098 6.427.238 36.179 2.655 68.248 23.323 92.18 49.606 3.171 3.482 5.554 6.004 8.031 10.107-1.713-1.415-4.285-4.449-5.906-6.236a264 264 0 0 0-8.882-9.432c-16.932-17.015-32.936-28.047-55.533-36.654a137.4 137.4 0 0 0-20.015-5.155c-33.99-5.915-67.28 5.14-94.309 25.682-3.405 2.588-6.478 5.47-10.003 7.944 3.513-4.505 9.052-8.701 13.754-12.014 16.281-11.473 34.815-19.758 54.562-22.852 3.786-.594 7.67-.98 11.504-1.059 2.822-.042 4.875.256 7.744-.115z"/></svg>